<?xml version="1.0" standalone="no"?>
<!DOCTYPE svg PUBLIC "-//W3C//DTD SVG 20010904//EN"
 "http://www.w3.org/TR/2001/REC-SVG-20010904/DTD/svg10.dtd">
<svg version="1.0" xmlns="http://www.w3.org/2000/svg"
 width="320.000000pt" height="320.000000pt" viewBox="0 0 320.000000 320.000000"
 preserveAspectRatio="xMidYMid meet">
<metadata>
Created by potrace 1.11, written by Peter Selinger 2001-2013
</metadata>
<g transform="translate(0.000000,320.000000) scale(0.100000,-0.100000)"
fill="#000000" stroke="none">
<path d="M0 1600 l0 -1600 1600 0 1600 0 0 1600 0 1600 -1600 0 -1600 0 0
-1600z m1244 839 c34 -6 88 -24 121 -39 62 -27 170 -119 194 -164 l14 -25 73
68 c133 124 279 177 485 174 297 -3 517 -159 614 -433 35 -98 47 -186 51 -352
l3 -168 -535 0 -535 0 6 -42 c15 -101 65 -200 130 -260 39 -36 115 -74 190
-93 66 -17 263 -20 350 -4 28 5 64 11 82 14 17 3 59 14 94 25 35 10 64 18 65
17 1 -2 26 -146 40 -232 3 -22 8 -43 10 -46 4 -8 -27 -37 -41 -39 -5 0 -38 -9
-72 -20 -33 -10 -79 -21 -100 -25 -21 -3 -49 -7 -62 -10 -165 -32 -398 -23
-548 20 -58 17 -196 85 -222 110 -11 11 -27 6 -100 -30 -182 -90 -304 -116
-521 -110 -85 2 -166 6 -180 9 -290 59 -434 213 -444 473 -4 98 7 167 38 237
28 63 100 144 165 185 42 27 187 88 216 90 15 1 98 13 120 17 52 11 269 3 345
-11 14 -3 40 -7 58 -10 l32 -5 0 52 c0 168 -79 277 -229 318 -41 11 -242 16
-286 6 -20 -4 -114 -17 -127 -17 -4 -1 -29 -7 -54 -15 -83 -25 -79 -29 -99
119 -10 72 -19 138 -19 146 -1 17 62 37 177 56 17 3 38 8 46 11 7 2 50 7 95
10 44 4 82 7 84 9 8 7 226 -5 276 -16z"/>
<path d="M2017 2139 c-134 -30 -232 -142 -271 -306 l-14 -63 349 0 349 0 0 33
c0 75 -42 183 -94 244 -69 79 -202 118 -319 92z"/>
<path d="M1058 1524 c-2 -1 -23 -5 -47 -8 -155 -19 -242 -104 -235 -232 7
-152 106 -217 329 -218 114 0 171 8 254 35 97 31 97 32 65 125 -31 91 -54 195
-54 241 0 34 -4 37 -75 48 -43 8 -232 15 -237 9z"/>
</g>
</svg>
